# xmcd CD database file
#
# Track frame offsets:
#	150
#	14556
#	37674
#	56720
#	70187
#	92866
#	113077
#	126340
#	131128
#	155064
#	176915
#
# Disc length: 2663 seconds
#
# Revision: 0
# Processed by: cddbd v1.5.2PL0 Copyright (c) Steve Scherf et al.
# Submitted via: CDex 1.70beta2
#
DISCID=9d0a650b
DTITLE=Christina Gustafsson - My Move
DYEAR=2009
DGENRE=Jazz
TTITLE0=Your smiling face
TTITLE1=Take a fall
TTITLE2=My move
TTITLE3=I've got the world on a string
TTITLE4=Standing where the changes begin
TTITLE5=Winter has gone
TTITLE6=Smile
TTITLE7=Happy Talk
TTITLE8=Stormy Weather
TTITLE9=In the light of New York
TTITLE10=Smiling hour
EXTD=YEAR: 2009
EXTT0=
EXTT1=
EXTT2=
EXTT3=
EXTT4=
EXTT5=
EXTT6=
EXTT7=
EXTT8=
EXTT9=
EXTT10=
PLAYORDER=
